<svg id="Capa_1" data-name="Capa 1" xmlns="http://www.w3.org/2000/svg" viewBox="0 0 145.07 101.55"><defs><style>.cls-1{fill:#010101;}.cls-2{fill:#1d1d1b;}</style></defs><path class="cls-1" d="M33.85,77.37a7.26,7.26,0,1,0,7.25,7.27v0A7.26,7.26,0,0,0,33.85,77.37Zm0,9.67a2.42,2.42,0,1,1,2.42-2.42h0A2.42,2.42,0,0,1,33.85,87Z"/><path class="cls-1" d="M111.22,77.37a7.26,7.26,0,1,0,7.25,7.27v0A7.27,7.27,0,0,0,111.22,77.37Zm0,9.67a2.42,2.42,0,1,1,2.42-2.42h0A2.42,2.42,0,0,1,111.22,87Z"/><path class="cls-1" d="M143.22,43,126.57,24.2a7.25,7.25,0,0,0-5.44-2.44h-22V7.25A7.27,7.27,0,0,0,91.88,0H7.25A7.27,7.27,0,0,0,0,7.25V70.12a2.41,2.41,0,0,0,2.41,2.41H4.84v7.26A7.25,7.25,0,0,0,12.09,87h5a16.9,16.9,0,0,0,33.46,0H94.49A16.9,16.9,0,0,0,128,87h9.86a7.26,7.26,0,0,0,7.26-7.25v-32A7.23,7.23,0,0,0,143.22,43ZM4.84,67.7V7.25A2.41,2.41,0,0,1,7.25,4.84H91.88a2.41,2.41,0,0,1,2.41,2.41h0V67.7ZM17.12,82.2h-5A2.41,2.41,0,0,1,9.7,79.8h0V72.53H22A16.91,16.91,0,0,0,17.12,82.2ZM33.85,96.71A12.09,12.09,0,1,1,45.94,84.62h0A12.09,12.09,0,0,1,33.85,96.71ZM58,82.2H50.58a16.86,16.86,0,0,0-4.91-9.67H58Zm21.76,0H62.86V72.53H79.79Zm14.7,0H84.62V72.53H99.4a16.83,16.83,0,0,0-4.91,9.67Zm16.73,14.51a12.09,12.09,0,1,1,12.09-12.09h0a12.09,12.09,0,0,1-12.06,12.09Zm29-16.92a2.41,2.41,0,0,1-2.41,2.41H128a17,17,0,0,0-16.73-14.5H99.13V26.6h9.67V50.77A7.27,7.27,0,0,0,116.05,58h24.18Zm0-26.6H116.05a2.41,2.41,0,0,1-2.41-2.41h0V26.6h7.49a2.39,2.39,0,0,1,1.82.8l16.66,18.77a2.38,2.38,0,0,1,.62,1.6v5.42Z"/><path class="cls-2" d="M76.61,39.72,46.14,9.23a2.69,2.69,0,0,0-3.8,0h0L22.52,29a2.71,2.71,0,0,0,0,3.82l6.37,6.37,0,0L53,63.31a2.69,2.69,0,0,0,3.82,0h0L76.61,43.54A2.71,2.71,0,0,0,76.61,39.72ZM64.2,35.84a.15.15,0,0,1,.21,0h0l5.72,5.68a.16.16,0,0,1,0,.22l-5.35,5.34a.16.16,0,0,1-.11.05.12.12,0,0,1-.1-.05L58.85,41.4a.17.17,0,0,1,0-.21ZM54.14,25.79a.16.16,0,0,1,.11-.05.12.12,0,0,1,.1.05L60,31.47a.2.2,0,0,1,0,.11.17.17,0,0,1,0,.1L54.7,37a.11.11,0,0,1-.11,0,.09.09,0,0,1-.1,0L48.8,31.32a.17.17,0,0,1,0-.19Zm-15.4-4.68h0l5.39-5.37h.21L50,21.42a.14.14,0,0,1,0,.2h0L44.65,27a.16.16,0,0,1-.22,0l-5.68-5.69A.14.14,0,0,1,38.74,21.11ZM34.82,36.7h-.1L29,31a.14.14,0,0,1,0-.2h0l5.35-5.35a.21.21,0,0,1,.11,0,.17.17,0,0,1,.1,0l5.69,5.68a.17.17,0,0,1,0,.23h0L34.93,36.7Zm10.06,10h-.11l-5.69-5.69a.17.17,0,0,1,0-.1.2.2,0,0,1,0-.11l5.35-5.35a.18.18,0,0,1,.22,0l5.68,5.69a.09.09,0,0,1,0,.1.2.2,0,0,1,0,.11L48.73,43,45,46.75Zm4.26,4.37a.16.16,0,0,1,0-.22l5.35-5.34a.12.12,0,0,1,.1-.05.16.16,0,0,1,.11.05l5.68,5.68a.14.14,0,0,1,0,.2h0L55,56.8a.09.09,0,0,1-.1,0,.11.11,0,0,1-.11,0Z"/></svg>